# xmcd
#
# Track frame offsets:
#	150
#	14692
#	25327
#	37672
#	51415
#	64310
#	84775
#	96785
#	109112
#	123035
#	136332
#	148110
#	158407
#	173332
#
# Disc length: 2568
#
# Revision: 5
# Processed by: cddbd v1.5.1PL0 Copyright (c) Steve Scherf et al.
# Submitted via: audiograbber 1.83.01
# Normalized: r4:DSETVAR1
#
DISCID=a90a060e
DTITLE=Various Artist - Mr Music Country 02-92
DYEAR=1992
DGENRE=Country
TTITLE0=George Jones - Where The Tall Grass Grows
TTITLE1=The Oak Ridge Boys - Walkin' After Midnight
TTITLE2=Lorrie Morgan - One More Last Time
TTITLE3=Mark Chesnutt - Brother Jukebox
TTITLE4=Marsha Thornton - You Better Straighten Up And Love Right
TTITLE5=Marty Brown - I'll Climb And Mountain
TTITLE6=Patty Loveless - I Came Straight To You
TTITLE7=Roy Rogers with Emmylou Harris - Little Joe The Wrangler
TTITLE8=Lionel Cartwright - Smack Dab In The Middle Of Love
TTITLE9=Melba Montgomery - Think I'll Go Somewhere And Cry Myself To Sleep
TTITLE10=John Night - Wild Living
TTITLE11=Irene Kelley - To Late (To Turn Back Now)
TTITLE12=Earl Thomas Conley - The Perfect Picture
TTITLE13=George Strait - Lonesome Rodeo Cowboy
EXTD=www.timmie.dk
EXTT0=
EXTT1=
EXTT2=
EXTT3=
EXTT4=
EXTT5=
EXTT6=
EXTT7=
EXTT8=
EXTT9=
EXTT10=
EXTT11=
EXTT12=
EXTT13=
PLAYORDER=
